<svg width="30" height="30" viewBox="0 0 30 30" fill="none" xmlns="http://www.w3.org/2000/svg">
<path d="M27.7199 0.00061875C27.6629 0.00249004 27.6061 0.00751622 27.5498 0.0156741H17.7292C17.5249 0.0127849 17.3221 0.0505269 17.1325 0.126706C16.9429 0.202886 16.7704 0.315984 16.6249 0.459427C16.4794 0.602871 16.3639 0.773799 16.285 0.962279C16.2061 1.15076 16.1655 1.35303 16.1655 1.55734C16.1655 1.76165 16.2061 1.96392 16.285 2.1524C16.3639 2.34088 16.4794 2.51181 16.6249 2.65525C16.7704 2.7987 16.9429 2.9118 17.1325 2.98797C17.3221 3.06415 17.5249 3.1019 17.7292 3.09901H24.0283L13.5558 13.5715C13.4079 13.7136 13.2897 13.8837 13.2084 14.072C13.127 14.2603 13.084 14.4629 13.0819 14.668C13.0798 14.8731 13.1187 15.0766 13.1962 15.2665C13.2737 15.4564 13.3884 15.6289 13.5334 15.7739C13.6784 15.919 13.851 16.0336 14.0409 16.1111C14.2308 16.1887 14.4342 16.2275 14.6393 16.2254C14.8444 16.2234 15.0471 16.1804 15.2353 16.099C15.4236 16.0176 15.5938 15.8995 15.7358 15.7515L26.2083 5.27902V11.5782C26.2054 11.7825 26.2432 11.9853 26.3194 12.1749C26.3955 12.3644 26.5086 12.537 26.6521 12.6825C26.7955 12.828 26.9665 12.9435 27.1549 13.0223C27.3434 13.1012 27.5457 13.1418 27.75 13.1418C27.9543 13.1418 28.1566 13.1012 28.3451 13.0223C28.5335 12.9435 28.7045 12.828 28.8479 12.6825C28.9914 12.537 29.1045 12.3644 29.1806 12.1749C29.2568 11.9853 29.2946 11.7825 29.2917 11.5782V1.74704C29.3214 1.52554 29.3026 1.30022 29.2367 1.08668C29.1707 0.873153 29.0591 0.676517 28.9096 0.510397C28.7601 0.344278 28.5762 0.212647 28.3708 0.124624C28.1654 0.0366003 27.9433 -0.00571196 27.7199 0.00061875ZM5.78125 2.32817C2.60749 2.32817 0 4.93566 0 8.10942V23.5261C0 26.6999 2.60749 29.3073 5.78125 29.3073H21.1979C24.3717 29.3073 26.9792 26.6999 26.9792 23.5261V16.2032C26.9821 15.9989 26.9443 15.7961 26.8681 15.6065C26.792 15.4169 26.6789 15.2444 26.5354 15.0989C26.392 14.9534 26.221 14.8379 26.0326 14.759C25.8441 14.6802 25.6418 14.6396 25.4375 14.6396C25.2332 14.6396 25.0309 14.6802 24.8424 14.759C24.654 14.8379 24.483 14.9534 24.3396 15.0989C24.1961 15.2444 24.083 15.4169 24.0069 15.6065C23.9307 15.7961 23.8929 15.9989 23.8958 16.2032V23.5261C23.8958 25.0267 22.6985 26.224 21.1979 26.224H5.78125C4.28068 26.224 3.08333 25.0267 3.08333 23.5261V8.10942C3.08333 6.60885 4.28068 5.41151 5.78125 5.41151H13.1042C13.3085 5.4144 13.5113 5.37665 13.7009 5.30047C13.8904 5.2243 14.063 5.1112 14.2085 4.96775C14.354 4.82431 14.4695 4.65338 14.5483 4.4649C14.6272 4.27642 14.6678 4.07415 14.6678 3.86984C14.6678 3.66553 14.6272 3.46326 14.5483 3.27478C14.4695 3.0863 14.354 2.91537 14.2085 2.77193C14.063 2.62848 13.8904 2.51539 13.7009 2.43921C13.5113 2.36303 13.3085 2.32528 13.1042 2.32817H5.78125Z" fill="#279DA7"/>
</svg>
